<svg width="80" height="64" viewBox="0 0 80 64" xmlns="http://www.w3.org/2000/svg">
  <style>
    .b { fill: #2563eb }
    .s { fill: none; stroke: #2563eb; stroke-linecap: round; stroke-linejoin: round }
    @media (prefers-color-scheme: dark) {
      .b { fill: #93c5fd }
      .s { stroke: #93c5fd }
    }
  </style>

  <g transform="translate(10, 8)">
    <path class="b" d="M25 5 L10 48 H15 L18 38 H32 L35 48 H40 L25 5 Z M20 33 L25 15 L30 33 H20 Z"/>
    <circle cx="25" cy="28" r="4"   class="s" stroke-width="0.5"/>
    <circle cx="25" cy="28" r="2"   class="b"/>
    <path class="b" d="M33 25 L38 48 H55 C58 48 60 46 60 43 L58 45 C58 46 55 46 53 46 H42 L37 25 Z"/>
    <circle cx="50" cy="42" r="3"   class="s" stroke-width="0.5"/>
    <circle cx="50" cy="42" r="1.5" class="b"/>
    <rect x="23" y="1" width="4" height="4" rx="0.5" class="b"/>
    <circle cx="28" cy="3" r="0.5" class="b"/>
    <circle cx="31" cy="2" r="0.3" class="b"/>
    <circle cx="33" cy="4" r="0.2" class="b"/>
    <circle cx="30" cy="5" r="0.2" class="b"/>
    <path d="M5 35 C5 5 45 5 45 35" class="s" stroke-width="2.5"/>
    <rect x="2"  y="28" width="5" height="12" rx="2" class="b"/>
    <rect x="43" y="28" width="5" height="12" rx="2" class="b"/>
  </g>
</svg>
